<svg width="63" height="63" viewBox="0 0 63 63" fill="none" xmlns="http://www.w3.org/2000/svg">
<path d="M39.8111 40.6564C49.4424 40.6564 57.2785 32.8208 57.2785 23.189C57.2785 13.5577 49.4424 5.72168 39.8111 5.72168C30.1798 5.72168 22.3438 13.5577 22.3438 23.189C22.3438 32.8208 30.1798 40.6564 39.8111 40.6564ZM39.8111 8.18262C48.0855 8.18262 54.8176 14.9146 54.8176 23.189C54.8176 31.4635 48.0855 38.1955 39.8111 38.1955C31.5367 38.1955 24.8047 31.464 24.8047 23.189C24.8047 14.9146 31.5367 8.18262 39.8111 8.18262Z" fill="#B9B9E1"/>
<path d="M39.6283 46.7434C52.5155 46.7434 63 36.2589 63 23.3717C63 10.4845 52.5155 0 39.6283 0C26.7411 0 16.2566 10.4845 16.2566 23.3717C16.2566 28.2628 17.7678 32.8064 20.3465 36.5637L16.5234 40.3868L16.0028 39.8662C15.5222 39.3856 14.743 39.3856 14.2624 39.8662L1.83753 52.2911C0.652725 53.4759 0 55.0515 0 56.727C0 58.4026 0.652725 59.9777 1.83753 61.1625C3.02234 62.3473 4.59743 63 6.27299 63C7.94854 63 9.52412 62.3473 10.7089 61.1625L23.1343 48.7376C23.365 48.5069 23.4943 48.194 23.4943 47.8676C23.4943 47.5413 23.365 47.2279 23.1343 46.9972L22.6132 46.4766L26.4363 42.6535C30.1936 45.2322 34.7377 46.7434 39.6283 46.7434ZM39.6283 2.46094C51.1587 2.46094 60.5391 11.8413 60.5391 23.3717C60.5391 34.9021 51.1587 44.2825 39.6283 44.2825C28.0984 44.2825 18.7175 34.9021 18.7175 23.3717C18.7175 11.8413 28.0984 2.46094 39.6283 2.46094ZM8.96896 59.4225C8.24847 60.1425 7.29149 60.5391 6.27299 60.5391C5.25449 60.5391 4.29751 60.1425 3.57749 59.4225C2.09084 57.9363 2.09084 55.5177 3.57749 54.031L15.1324 42.4762L15.6529 42.9962C15.6529 42.9967 15.6534 42.9967 15.6534 42.9972L20.5238 47.8676L8.96896 59.4225ZM20.8733 44.7362L18.2638 42.1267L21.8572 38.5334C22.6574 39.4697 23.5303 40.3426 24.4666 41.1428L20.8733 44.7362Z" fill="#B9B9E1"/>
<path d="M35.5986 19.9548C36.2783 19.9548 36.8291 19.4039 36.8291 18.7243C36.8291 17.8774 37.1915 17.0675 37.8226 16.5022C38.4628 15.9288 39.291 15.6659 40.1557 15.7616C41.5217 15.9125 42.6229 17.0137 42.7738 18.3797C42.9065 19.5842 42.3138 20.7421 41.2631 21.3294C39.6087 22.2547 38.5806 23.9658 38.5806 25.7947V27.5505C38.5806 28.2302 39.1314 28.781 39.8111 28.781C40.4902 28.781 41.0415 28.2302 41.0415 27.5505V25.7947C41.0415 24.856 41.5866 23.9682 42.4643 23.4775C44.3802 22.4061 45.4616 20.2989 45.2199 18.1095C44.9435 15.6077 42.9271 13.5919 40.4258 13.3155C38.88 13.1449 37.3319 13.638 36.1807 14.669C35.0291 15.7005 34.3682 17.1785 34.3682 18.7243C34.3682 19.4039 34.919 19.9548 35.5986 19.9548Z" fill="#FF7AA0"/>
<path d="M39.8103 31.1175C39.4868 31.1175 39.1696 31.2492 38.9408 31.478C38.712 31.7068 38.5798 32.0245 38.5798 32.348C38.5798 32.6729 38.7115 32.9892 38.9408 33.2179C39.1696 33.4477 39.4868 33.5784 39.8103 33.5784C40.1343 33.5784 40.4515 33.4477 40.6803 33.2179C40.9091 32.9892 41.0408 32.6714 41.0408 32.348C41.0408 32.0245 40.9096 31.7068 40.6803 31.478C40.4515 31.2492 40.1343 31.1175 39.8103 31.1175Z" fill="#FF7AA0"/>
</svg>
